<svg height="512pt" viewBox="0 0 512 512" width="512pt" xmlns="http://www.w3.org/2000/svg"><path d="m193.699219 240.796875c2.152343-6.007813 5.285156-11.460937 9.292969-16.238281-3.902344-2.09375-7.980469-3.25-11.84375-3.25-6.207032 0-10.242188 1.53125-15.351563 3.46875-5.382813 2.042968-11.484375 4.355468-19.417969 4.355468-8.199218 0-14.886718-2.394531-20.789062-4.511718-4.964844-1.777344-9.25-3.3125-14.097656-3.3125-9.183594 0-19.242188 6.347656-25.617188 16.179687-2.230469 3.457031-3.929688 8.25-4.882812 13.828125-3.167969 18.570313 2.699218 42.0625 15.316406 61.292969 7.914062 12.03125 14.28125 18.160156 18.917968 18.199219h.136719c2.105469 0 3.414063-.535156 6.882813-2.085938 5.253906-2.347656 12.449218-5.5625 24.226562-5.621094h.351563c11.792969 0 18.902343 3.261719 24.097656 5.644532 3.359375 1.542968 4.519531 2.03125 6.519531 2.03125h.109375c3.03125-.027344 8.867188-3.453125 19.5-19.621094 2-3.0625 3.472657-5.460938 4.78125-7.828125-18.359375-14.3125-26.40625-39.519531-18.132812-62.53125zm0 0"/><path d="m456.832031 0h-401.664062c-30.421875 0-55.167969 24.746094-55.167969 55.167969v401.664062c0 30.421875 24.746094 55.167969 55.167969 55.167969h401.664062c30.421875 0 55.167969-24.746094 55.167969-55.167969v-401.664062c0-30.421875-24.746094-55.167969-55.167969-55.167969zm-317.660156 148.449219 18.445313-21.917969c5.332031-6.339844 14.792968-7.148438 21.136718-1.816406 6.335938 5.332031 7.148438 14.796875 1.816406 21.132812l-18.445312 21.917969c-2.96875 3.523437-7.214844 5.339844-11.484375 5.339844-3.410156 0-6.835937-1.15625-9.652344-3.519531-6.339843-5.335938-7.152343-14.800782-1.816406-21.136719zm105.902344 154.984375c-4.457031 9.933594-6.875 14.898437-12.933594 24.171875-7.058594 10.726562-21.6875 32.972656-44.316406 33.167969l-.382813.003906c-8.648437 0-14.648437-2.753906-19.03125-4.765625-3.820312-1.753907-6.347656-2.910157-11.585937-2.910157h-.191407c-5.464843.027344-8.121093 1.214844-12.148437 3.011719-4.683594 2.09375-10.507813 4.695313-19.121094 4.695313h-.414062c-22.976563-.199219-37.507813-22.292969-43.714844-31.730469-16.871094-25.710937-24.273437-56.667969-19.8125-82.816406 1.660156-9.683594 4.777344-18.113281 9.269531-25.070313 11.960938-18.445312 31.421875-29.882812 50.804688-29.882812 10.058594 0 17.90625 2.8125 24.214844 5.074218 4.292968 1.535157 7.683593 2.75 10.667968 2.75 2.328125 0 4.613282-.824218 8.78125-2.40625 6.027344-2.285156 14.285156-5.417968 25.988282-5.417968 17.109374 0 34.542968 9.003906 46.636718 24.089844 2.769532 3.457031 3.871094 7.957031 3.007813 12.304687-.859375 4.339844-3.597657 8.082031-7.476563 10.21875-5.554687 3.058594-9.382812 7.4375-11.378906 13.007813-4.078125 11.347656.402344 26.921874 14.746094 32.328124 3.871094 1.460938 6.96875 4.453126 8.554687 8.273438 1.589844 3.820312 1.53125 8.125-.164062 11.902344zm70.285156 16.363281h7.804687c8.539063 0 13.007813 6.441406 13.007813 12.808594 0 6.261719-4.070313 13.003906-13.007813 13.003906h-7.804687c-25.890625 0-39.019531-11.578125-39.019531-34.417969v-97.054687c0-6.179688 7.6875-10.003907 14.808594-10.003907 7.375 0 15.003906 3.738282 15.003906 10.003907v32.417969h21.613281c5.589844 0 8.605469 5.878906 8.605469 11.40625 0 5.667968-2.957032 11.40625-8.605469 11.40625h-21.613281v41.824218c0 6.753906 1.980468 8.605469 9.207031 8.605469zm122.503906-56.988281-34.199219 79.195312c-1.878906 4.027344-8.199218 5.804688-13.640624 5.804688-6.828126 0-11.851563-2.167969-13.4375-5.800782l-34.347657-79.070312c-.851562-1.316406-1.242187-3.425781-1.242187-4.578125 0-7.421875 11.652344-13.003906 19.207031-13.003906 4.511719 0 8.046875 2.113281 9.464844 5.660156l20.359375 53.195313 20.339844-52.773438c1.46875-3.917969 4.765624-6.082031 9.269531-6.082031 5.703125 0 19.210937 5.125 19.210937 13.207031 0 1.574219-.292968 2.847656-.984375 4.246094zm0 0"/></svg>